:SAMPLES-PER-SECOND 30
:FULLY-SPECIFIED
:DEGREES
1
root  79.6436 40.4021 -5.49227 122.486 -88.5206 -122.337
RightUpLeg  2.34082 -7.52667 -4.91447
RightLeg  1.08162 -4.12055 3.55344
RightFoot  -1.16406 0.0460974 -0.680487
RightToes  0.000482159 0.542163 -0.142577
Spine  1.73012 -0.822831 -0.897648
Spine1  3.34942 -0.890113 0.0603187
HEad  -3.57497 1.79113 1.28429
LeftShoulder1  0.456356 1.10109 -11.5567
LeftArm  -19.8305 3.7016 -4.1038
LeftForeArm  8.83421 0.0766377 -1.33214
LeftHand  -0.25398 0.0180481 5.50724
RightShoulder  0.430281 -0.814046 8.55737
RightArm  -23.3184 -0.699714 3.51235
RightForeArm  1.31643 -1.48025 1.80979
RightHand  -1.58499 6.16826 -16.1919
LeftUpLeg  2.46567 7.41125 6.24917
LeftLeg  2.96823 15.8547 -3.89495
LeftFoot  -4.08134 0.114141 -1.26642
LeftToes  1.06246e-005 4.65855e-005 -8.18504e-006
2
root  79.6404 40.4021 -5.48984 122.161 -88.5287 -122.011
RightUpLeg  2.36526 -7.52573 -4.93005
RightLeg  1.04778 -4.12116 3.56664
RightFoot  -1.15125 0.039571 -0.579105
RightToes  0.000482159 0.542163 -0.142577
Spine  1.54926 -0.925527 -0.958398
Spine1  3.56841 -1.02922 0.206986
HEad  -3.51849 2.2013 1.09799
LeftShoulder1  0.503319 0.930977 -12.2172
LeftArm  -19.6712 3.85684 -3.39158
LeftForeArm  8.68303 0.102342 -1.36095
LeftHand  -0.25398 0.0180481 5.50724
RightShoulder  0.483892 -0.464625 8.47232
RightArm  -23.2486 -0.737861 3.37223
RightForeArm  0.976008 -1.52379 1.83306
RightHand  -1.57253 5.96842 -16.3663
LeftUpLeg  2.46303 7.40627 6.23981
LeftLeg  2.9836 15.8464 -3.88457
LeftFoot  -4.09985 0.11396 -1.26361
LeftToes  1.06246e-005 4.65855e-005 -8.18504e-006
3
root  79.6335 40.4021 -5.48582 121.463 -88.5493 -121.283
RightUpLeg  2.35545 -7.52433 -4.94319
RightLeg  1.02984 -4.138 3.56799
RightFoot  -1.14848 0.0358897 -0.521922
RightToes  0.000482159 0.542163 -0.142577
Spine  1.58472 -0.972228 -1.03066
Spine1  3.61277 -1.08861 0.256623
HEad  -3.48963 2.43594 1.02714
LeftShoulder1  0.511943 0.892108 -12.2595
LeftArm  -19.6044 4.00881 -3.32083
LeftForeArm  8.71929 0.0483235 -1.37159
LeftHand  -0.25398 0.0180481 5.50724
RightShoulder  0.48887 -0.423738 8.41823
RightArm  -23.1526 -0.795126 3.35902
RightForeArm  0.358957 -1.37732 1.90999
RightHand  -1.54144 5.54814 -16.6336
LeftUpLeg  2.4375 7.38894 6.21355
LeftLeg  2.98241 15.8416 -3.87518
LeftFoot  -4.09758 0.113126 -1.25065
LeftToes  1.06246e-005 4.65855e-005 -8.18504e-006
4
root  79.6271 40.4021 -5.48155 120.729 -88.5638 -120.49
RightUpLeg  2.30479 -7.52696 -4.94278
RightLeg  1.02789 -4.17683 3.5672
RightFoot  -1.14315 0.0385324 -0.562972
RightToes  0.000482159 0.542163 -0.142577
Spine  1.54271 -0.998962 -1.0789
Spine1  3.71849 -1.12546 0.304441
HEad  -3.51664 2.40157 1.02904
LeftShoulder1  0.523558 0.841154 -12.3323
LeftArm  -19.46 4.13994 -3.22997
LeftForeArm  8.58918 -0.102074 -1.43941
LeftHand  -0.25398 0.0180481 5.50724
RightShoulder  0.509663 -0.286266 8.38334
RightArm  -23.021 -0.971883 3.29795
RightForeArm  -0.503149 -1.17182 2.00804
RightHand  -1.46628 4.86894 -16.8426
LeftUpLeg  2.38345 7.37848 6.1928
LeftLeg  2.97373 15.845 -3.8786
LeftFoot  -4.08474 0.110201 -1.20518
LeftToes  1.06246e-005 4.65855e-005 -8.18504e-006
5
root  79.6227 40.4021 -5.47537 120.278 -88.573 -119.988
RightUpLeg  2.26613 -7.55422 -4.96096
RightLeg  1.01865 -4.18936 3.59315
RightFoot  -1.13417 0.0413195 -0.606265
RightToes  0.000482159 0.542163 -0.142577
Spine  1.53968 -1.00623 -1.00693
Spine1  3.77038 -1.11037 0.201833
HEad  -3.50194 2.25169 1.07753
LeftShoulder1  0.526104 0.829082 -12.3406
LeftArm  -19.3739 4.16067 -3.19614
LeftForeArm  8.44059 -0.211878 -1.49492
LeftHand  -0.25398 0.0180481 5.50724
RightShoulder  0.52364 -0.198399 8.38596
RightArm  -22.8539 -1.13224 3.26624
RightForeArm  -1.40705 -0.947415 2.12763
RightHand  -1.37442 4.13 -16.9801
LeftUpLeg  2.32437 7.36452 6.16935
LeftLeg  2.98609 15.8582 -3.8727
LeftFoot  -4.09872 0.107539 -1.1638
LeftToes  1.06246e-005 4.65855e-005 -8.18504e-006
6
root  79.6166 40.4021 -5.46638 120.325 -88.6028 -120.012
RightUpLeg  2.26247 -7.6103 -5.02804
RightLeg  1.01908 -4.13746 3.62985
RightFoot  -1.16028 0.0374915 -0.546802
RightToes  0.000482159 0.542163 -0.142577
Spine  1.69903 -1.00221 -0.91074
Spine1  3.60597 -1.06871 0.0259194
HEad  -3.30579 2.27699 1.07878
LeftShoulder1  0.527162 0.816102 -12.2817
LeftArm  -19.3986 4.12171 -3.21236
LeftForeArm  8.44737 -0.14578 -1.48034
LeftHand  -0.25398 0.0180481 5.50724
RightShoulder  0.519878 -0.230131 8.4291
RightArm  -22.693 -1.17043 3.24476
RightForeArm  -1.73613 -0.841353 2.21485
RightHand  -1.35647 3.99465 -16.9965
LeftUpLeg  2.30139 7.31657 6.10706
LeftLeg  2.98872 15.8924 -3.84641
LeftFoot  -4.11689 0.107846 -1.16858
LeftToes  1.06246e-005 4.65855e-005 -8.18504e-006
7
root  79.6065 40.4021 -5.45625 120.55 -88.6503 -120.228
RightUpLeg  2.2633 -7.64933 -5.10691
RightLeg  1.04802 -4.07077 3.63208
RightFoot  -1.21954 0.0270386 -0.396951
RightToes  0.000482159 0.542163 -0.142577
Spine  2.06623 -0.968037 -0.962268
Spine1  3.15146 -1.03171 0.0117326
HEad  -2.98398 2.46639 1.04132
LeftShoulder1  0.526652 0.809575 -12.21
LeftArm  -19.4487 4.07584 -3.28309
LeftForeArm  8.63241 0.0103258 -1.43622
LeftHand  -0.25398 0.0180481 5.50724
RightShoulder  0.494436 -0.404618 8.51006
RightArm  -22.6323 -1.03813 3.17689
RightForeArm  -1.07123 -0.976081 2.19963
RightHand  -1.45263 4.76553 -16.8543
LeftUpLeg  2.32045 7.25848 6.02506
LeftLeg  2.94648 15.9343 -3.83167
LeftFoot  -4.10686 0.108859 -1.18432
LeftToes  1.06246e-005 4.65855e-005 -8.18504e-006
8
root  79.596 40.4017 -5.44289 119.659 -88.6805 -119.311
RightUpLeg  2.23055 -7.64058 -5.13374
RightLeg  1.0941 -4.10145 3.59886
RightFoot  -1.25431 0.0191524 -0.322529
RightToes  0.000482159 0.542163 -0.142577
Spine  2.47843 -0.924331 -1.04701
Spine1  2.64248 -1.00434 0.0825857
HEad  -2.76519 2.53381 1.05793
LeftShoulder1  0.507867 0.894742 -12.1097
LeftArm  -19.4932 4.00455 -3.4403
LeftForeArm  8.92589 0.0901365 -1.40789
LeftHand  -0.25398 0.0180481 5.50724
RightShoulder  0.458554 -0.649002 8.62956
RightArm  -22.6947 -0.792872 3.07657
RightForeArm  -0.0416059 -1.25685 2.10843
RightHand  -1.57481 5.72439 -16.7228
LeftUpLeg  2.31798 7.23871 5.98167
LeftLeg  2.91693 15.9364 -3.84056
LeftFoot  -4.12456 0.108484 -1.1785
LeftToes  1.06246e-005 4.65855e-005 -8.18504e-006
9
root  79.5873 40.3993 -5.41802 116.809 -88.6925 -116.402
RightUpLeg  2.16488 -7.62495 -5.12894
RightLeg  1.14059 -4.22757 3.57185
RightFoot  -1.25736 0.0214783 -0.408389
RightToes  0.000482159 0.542163 -0.142577
Spine  2.62042 -0.947388 -0.88039
Spine1  2.51697 -0.991128 -0.102492
HEad  -2.77362 2.29915 1.12091
LeftShoulder1  0.475841 1.04115 -11.9364
LeftArm  -19.613 3.93976 -3.63677
LeftForeArm  9.24095 0.0916106 -1.35924
LeftHand  -0.25398 0.0180481 5.50724
RightShoulder  0.444997 -0.754837 8.76713
RightArm  -22.8235 -0.630367 3.00597
RightForeArm  0.275432 -1.41499 2.03601
RightHand  -1.61344 5.95739 -16.7878
LeftUpLeg  2.22852 7.22702 5.95358
LeftLeg  2.99336 15.8944 -3.81765
LeftFoot  -4.25528 0.109943 -1.20117
LeftToes  1.06246e-005 4.65855e-005 -8.18504e-006
10
root  79.5749 40.3938 -5.3775 113.94 -88.7191 -113.471
RightUpLeg  2.11944 -7.65987 -5.18634
RightLeg  1.16857 -4.27192 3.57029
RightFoot  -1.28016 0.0196106 -0.427629
RightToes  0.000482159 0.542163 -0.142577
Spine  2.41478 -1.02702 -0.538654
Spine1  2.86314 -0.992425 -0.482367
HEad  -2.82872 1.92031 1.10005
LeftShoulder1  0.472351 1.0464 -11.8267
LeftArm  -19.7612 3.99438 -3.71075
LeftForeArm  9.40572 0.088948 -1.28439
LeftHand  -0.25398 0.0180481 5.50724
RightShoulder  0.47239 -0.600278 8.8607
RightArm  -23 -0.698395 2.98485
RightForeArm  -0.227884 -1.32811 2.00554
RightHand  -1.5694 5.51565 -16.9718
LeftUpLeg  2.09603 7.15562 5.85445
LeftLeg  3.16702 15.8966 -3.72336
LeftFoot  -4.47995 0.114034 -1.26477
LeftToes  1.06246e-005 4.65855e-005 -8.18504e-006
11
root  79.5544 40.3857 -5.32695 114.68 -88.7429 -114.207
RightUpLeg  2.15976 -7.74311 -5.33152
RightLeg  1.1493 -4.1126 3.58842
RightFoot  -1.30349 0.000122391 -0.16121
RightToes  0.000482159 0.542163 -0.142577
Spine  2.23918 -1.01747 -0.417565
Spine1  3.17158 -0.967025 -0.550851
HEad  -2.60811 1.68169 0.948635
LeftShoulder1  0.521804 0.808014 -11.9979
LeftArm  -19.7272 4.19209 -3.60064
LeftForeArm  9.27118 0.028993 -1.28103
LeftHand  -0.25398 0.0180481 5.50724
RightShoulder  0.512353 -0.360618 8.89708
RightArm  -23.1757 -0.902443 2.96381
RightForeArm  -0.648153 -1.1274 1.97927
RightHand  -1.52823 5.16541 -17.0604
LeftUpLeg  2.05151 7.05467 5.69795
LeftLeg  3.33313 16.0197 -3.61419
LeftFoot  -4.70132 0.114781 -1.27638
LeftToes  1.06246e-005 4.65855e-005 -8.18504e-006
12
root  79.5294 40.3793 -5.26935 119.677 -88.6899 -119.271
RightUpLeg  2.27447 -7.83779 -5.48619
RightLeg  1.10076 -3.85651 3.63174
RightFoot  -1.25143 -0.0201086 0.141162
RightToes  0.000482159 0.542163 -0.142577
Spine  2.43902 -0.852702 -0.578927
Spine1  2.98944 -0.878464 -0.179447
HEad  -1.97596 1.7175 0.766182
LeftShoulder1  0.593841 0.492808 -12.4329
LeftArm  -19.4826 4.42564 -3.44923
LeftForeArm  8.98614 -0.185897 -1.38998
LeftHand  -0.25398 0.0180481 5.50724
RightShoulder  0.533249 -0.249602 8.99434
RightArm  -23.1624 -1.06777 2.88866
RightForeArm  -0.442142 -0.898631 1.98924
RightHand  -1.53979 5.26915 -17.0273
LeftUpLeg  2.14838 7.00617 5.58791
LeftLeg  3.41645 16.2207 -3.56192
LeftFoot  -4.87667 0.110835 -1.21503
LeftToes  1.06246e-005 4.65855e-005 -8.18504e-006
13
root  79.5036 40.3759 -5.19547 124.578 -88.562 -124.239
RightUpLeg  2.35949 -7.9328 -5.60602
RightLeg  1.1084 -3.64388 3.69194
RightFoot  -1.16091 -0.0166867 0.124258
RightToes  0.000482159 0.542163 -0.142577
Spine  2.78318 -0.685007 -0.633076
Spine1  2.59857 -0.771956 0.118214
HEad  -1.0854 2.02344 0.624451
LeftShoulder1  0.642692 0.314651 -12.9202
LeftArm  -19.3019 4.62663 -3.37999
LeftForeArm  8.95265 -0.506737 -1.48581
LeftHand  -0.25398 0.0180481 5.50724
RightShoulder  0.553519 -0.181529 9.29948
RightArm  -22.9223 -1.2086 2.81228
RightForeArm  -0.0595869 -0.488381 2.09211
RightHand  -1.58135 5.53398 -17.0683
LeftUpLeg  2.28372 6.98427 5.52341
LeftLeg  3.44025 16.411 -3.54285
LeftFoot  -5.04591 0.109106 -1.18816
LeftToes  1.06246e-005 4.65855e-005 -8.18504e-006
14
root  79.4731 40.3703 -5.09657 126.594 -88.4718 -126.266
RightUpLeg  2.35507 -8.0302 -5.7466
RightLeg  1.21305 -3.45914 3.71778
RightFoot  -1.15656 -0.00823961 0.00220612
RightToes  0.000482159 0.542163 -0.142577
Spine  2.86713 -0.662243 -0.380269
Spine1  2.52794 -0.71891 -0.029697
HEad  -0.212512 2.47946 0.515288
LeftShoulder1  0.667488 0.253034 -13.3389
LeftArm  -19.4128 4.8228 -3.40138
LeftForeArm  9.36821 -0.801926 -1.44144
LeftHand  -0.25398 0.0180481 5.50724
RightShoulder  0.599421 -0.0171446 9.89096
RightArm  -22.7947 -1.43927 2.88459
RightForeArm  -0.155304 0.240071 2.23422
RightHand  -1.62283 5.67491 -17.2886
LeftUpLeg  2.33833 6.9048 5.39113
LeftLeg  3.49453 16.579 -3.49071
LeftFoot  -5.26997 0.110003 -1.20211
LeftToes  1.06246e-005 4.65855e-005 -8.18504e-006
15
root  79.4334 40.3572 -4.97751 126.99 -88.459 -126.66
RightUpLeg  2.33635 -8.11511 -5.94282
RightLeg  1.36409 -3.29029 3.67339
RightFoot  -1.24427 -0.0232906 0.167895
RightToes  0.000482159 0.542163 -0.142577
Spine  2.70827 -0.727972 -0.0947219
Spine1  2.83068 -0.732076 -0.294256
HEad  0.421197 2.85528 0.44598
LeftShoulder1  0.703765 0.158235 -13.8925
LeftArm  -19.7744 5.03184 -3.4784
LeftForeArm  9.90377 -1.08309 -1.28674
LeftHand  -0.25398 0.0180481 5.50724
RightShoulder  0.662452 0.195634 10.6909
RightArm  -23.1179 -1.75584 3.27089
RightForeArm  -0.839694 1.13265 2.30413
RightHand  -1.66028 5.71531 -17.6118
LeftUpLeg  2.34094 6.79736 5.17733
LeftLeg  3.64054 16.7429 -3.41769
LeftFoot  -5.58899 0.105117 -1.12616
LeftToes  1.06246e-005 4.65855e-005 -8.18504e-006
